<svg id="Group_815" data-name="Group 815" xmlns="http://www.w3.org/2000/svg" width="44.234" height="25.601" viewBox="0 0 44.234 25.601">
  <path id="Path_171" data-name="Path 171" d="M602.649,304.587H583.4l-.012,2.507h15.331L579.912,325.9V310.591l-2.506-.012v19.227l.317.381H597l.012-2.507H581.681l18.812-18.811v15.314l2.506.012V304.938Z" transform="translate(-558.765 -304.587)" fill="#fff"/>
  <path id="Path_172" data-name="Path 172" d="M484.174,400.365c0,1.125.037,2.082.079,2.813-.349-.675-.831-1.564-1.446-2.608l-6.976-11.618h-3.489v18.524h2.953V396.063c0-1.132-.037-2.094-.08-2.826.351.668.839,1.551,1.472,2.6l6.95,11.644h3.49V388.952h-2.953Z" transform="translate(-472.342 -381.875)" fill="#fff"/>
</svg>